<svg width="404" height="87" viewBox="0 0 404 87" fill="none" xmlns="http://www.w3.org/2000/svg">
<rect x="85.8809" y="2.60702" width="222.167" height="81" rx="14.7841" fill="#1D2533"/>
<path d="M282.766 63.6834V50.7403H277.744V47.7535H291.072V50.7403H286.082V63.6834H282.766Z" fill="white"/>
<path d="M263.493 56.4251C263.718 59.2514 265.617 61.2747 268.418 61.2747C270.897 61.2747 271.927 60.1828 272.957 58.7696L275.565 60.1506C274.084 62.6557 271.895 64.1331 268.354 64.1331C263.943 64.1331 260.273 60.7287 260.273 55.7185C260.273 50.7404 263.943 47.3039 268.515 47.3039C273.15 47.3039 276.241 50.612 276.241 55.2689V56.4251H263.493ZM268.418 49.9054C265.971 49.9054 264.104 51.6076 263.557 53.8236H273.054C272.796 51.3185 270.865 49.9054 268.418 49.9054Z" fill="white"/>
<path d="M250.891 63.6834V50.7403H245.869V47.7535H259.197V50.7403H254.207V63.6834H250.891Z" fill="white"/>
<path d="M229.012 63.6834V47.7535H232.199V59.2513L239.828 47.7535H243.337V63.6834H240.15V52.1856L232.521 63.6834H229.012Z" fill="white"/>
<path d="M226.24 59.9901C224.727 62.5594 222.474 64.1331 219.126 64.1331C214.394 64.1331 210.82 60.7287 210.82 55.7185C210.82 50.7083 214.651 47.3039 219.126 47.3039C222.571 47.3039 224.985 48.8134 226.144 51.3185L223.375 52.9244C222.313 51.1901 220.832 50.3871 219.126 50.3871C216.39 50.3871 214.233 52.4426 214.233 55.7185C214.233 58.9944 216.293 61.0499 219.126 61.0499C221.347 61.0499 222.538 59.9901 223.568 58.4806L226.24 59.9901Z" fill="white"/>
<path d="M192.141 47.7537H195.489V50.3551C196.487 48.6529 198.611 47.304 201.154 47.304C205.243 47.304 208.559 50.6121 208.559 55.7186C208.559 60.6967 205.211 64.1332 200.897 64.1332C198.515 64.1332 196.615 63.0734 195.489 61.4354V70.2354H192.141V47.7537ZM200.189 50.3551C197.291 50.3551 195.231 52.6675 195.231 55.7186C195.231 58.7697 197.291 61.0821 200.189 61.0821C203.086 61.0821 205.146 58.8018 205.146 55.7186C205.146 52.6354 203.086 50.3551 200.189 50.3551Z" fill="white"/>
<path d="M176.159 56.4251C176.384 59.2514 178.283 61.2747 181.084 61.2747C183.563 61.2747 184.593 60.1828 185.623 58.7696L188.231 60.1506C186.75 62.6557 184.561 64.1331 181.02 64.1331C176.609 64.1331 172.939 60.7287 172.939 55.7185C172.939 50.7404 176.609 47.3039 181.181 47.3039C185.816 47.3039 188.907 50.612 188.907 55.2689V56.4251H176.159ZM181.084 49.9054C178.637 49.9054 176.77 51.6076 176.223 53.8236H185.72C185.462 51.3185 183.531 49.9054 181.084 49.9054Z" fill="white"/>
<path d="M157.744 63.6834V47.7535H164.987C168.4 47.7535 170.299 49.5199 170.299 51.7038C170.299 53.5345 169.333 54.6264 167.885 55.2688C169.559 55.7826 170.879 57.0352 170.879 59.0907C170.879 61.7885 168.529 63.6834 165.181 63.6834H157.744ZM161.028 54.1126H164.762C166.243 54.1126 167.144 53.5345 167.144 52.2177C167.144 50.933 166.243 50.3549 164.794 50.3549H161.028V54.1126ZM161.028 61.0819H164.987C166.694 61.0819 167.563 60.2148 167.563 58.8659C167.563 57.5169 166.694 56.6819 164.987 56.6819H161.028V61.0819Z" fill="white"/>
<path d="M139.451 63.6834V47.7535H142.638V59.2513L150.268 47.7535H153.777V63.6834H150.59V52.1856L142.96 63.6834H139.451Z" fill="white"/>
<path d="M121.402 63.6834V47.7535H124.718V53.952H132.155V47.7535H135.47V63.6834H132.155V56.8425H124.718V63.6834H121.402Z" fill="white"/>
<path d="M106.047 70.46C104.888 70.46 103.922 70.2994 103.246 69.9782V66.7023C104.34 67.1841 105.081 67.3768 105.982 67.3768C106.884 67.3768 107.463 66.9272 107.882 65.8031L108.686 63.7797L102.119 47.7535H105.886L110.425 59.1549L114.867 47.7535H118.634L110.843 66.895C109.813 69.4323 108.364 70.46 106.047 70.46Z" fill="white"/>
<path d="M194.432 38.6859V22.756H197.747V28.9545H205.184V22.756H208.5V38.6859H205.184V31.845H197.747V38.6859H194.432Z" fill="white"/>
<path d="M183.283 20.5081C181.191 20.5081 179.807 19.0628 179.807 17.0395H182.06C182.06 17.8424 182.511 18.4205 183.283 18.4205C184.088 18.4205 184.539 17.8424 184.539 17.0395H186.792C186.792 19.0628 185.376 20.5081 183.283 20.5081ZM176.137 38.6861V22.7562H179.324V34.254L186.953 22.7562H190.462V38.6861H187.275V27.1884L179.646 38.6861H176.137Z" fill="white"/>
<path d="M169.751 38.6864C169.59 38.012 169.364 37.0806 169.364 35.8602C168.367 37.9156 166.274 39.1361 163.924 39.1361C160.737 39.1361 158.58 37.1448 158.58 34.1901C158.58 31.0105 161.027 29.5011 164.149 29.0514L169.236 28.3127V27.5419C169.236 25.7113 168.077 24.7478 165.856 24.7478C163.731 24.7478 162.572 25.7755 162.572 26.9317C162.572 27.0923 162.572 27.2208 162.604 27.4135L159.546 27.8631C159.481 27.5419 159.449 27.1886 159.449 26.8996C159.449 24.4266 161.928 22.3069 165.856 22.3069C170.137 22.3069 172.584 24.2339 172.584 27.831V34.7361C172.584 36.5025 172.712 37.5302 173.067 38.6864H169.751ZM164.568 36.374C167.336 36.374 169.236 34.2543 169.236 31.1711V30.7215L164.89 31.3959C162.926 31.685 161.831 32.5521 161.831 34.0295C161.831 35.5069 162.99 36.374 164.568 36.374Z" fill="white"/>
<path d="M141.457 38.9107C140.781 38.9107 140.137 38.6859 140.137 38.6859V35.7633C140.137 35.7633 140.555 35.956 141.263 35.956C142.294 35.956 142.776 35.3136 142.97 32.2304L143.485 22.756H155.364V38.6859H152.048V25.7428H146.382L146.028 32.3589C145.803 36.9195 144.644 38.9107 141.457 38.9107Z" fill="white"/>
<path d="M123.35 38.6859V22.756H126.665V28.9545H134.102V22.756H137.418V38.6859H134.102V31.845H126.665V38.6859H123.35Z" fill="white"/>
<path d="M120.176 30.7215C120.176 36.2135 115.991 39.1361 111.645 39.1361C107.267 39.1361 103.082 36.2135 103.082 30.7215C103.082 25.2295 107.267 22.3069 111.645 22.3069C115.991 22.3069 120.176 25.2295 120.176 30.7215ZM111.645 36.085C114.414 36.085 116.796 33.9974 116.796 30.7215C116.796 27.4456 114.414 25.358 111.645 25.358C108.844 25.358 106.462 27.4456 106.462 30.7215C106.462 33.9974 108.844 36.085 111.645 36.085Z" fill="white"/>
<rect width="82.1313" height="82.1313" rx="36.9603" transform="matrix(0.707937 -0.706276 0.707937 0.706276 -15.0898 43.3278)" fill="white"/>
<path fill-rule="evenodd" clip-rule="evenodd" d="M42.8863 65.7771C53.1539 65.7771 61.4449 57.626 61.4449 47.6106H64.6601C64.6601 59.4221 54.8936 68.9652 42.8863 68.9652C30.8789 68.9652 21.1125 59.4221 21.1125 47.6106H24.3277C24.3277 57.626 32.6186 65.7771 42.8863 65.7771Z" fill="#7700FF"/>
<path fill-rule="evenodd" clip-rule="evenodd" d="M61.2973 47.4634L64.8077 47.4634V47.6106C64.8077 59.506 54.9726 69.1124 42.8863 69.1124C30.7999 69.1124 20.9648 59.506 20.9648 47.6106L20.9648 47.4633H24.4753V47.6106C24.4753 57.5422 32.6977 65.6299 42.8863 65.6299C53.0748 65.6299 61.2973 57.5422 61.2973 47.6106V47.4634ZM64.6596 47.7579C64.5788 59.5014 54.8437 68.9652 42.8863 68.9652C30.9289 68.9652 21.1937 59.5014 21.113 47.7579C21.1126 47.7088 21.1125 47.6598 21.1125 47.6106H24.3277C24.3277 57.626 32.6186 65.7771 42.8863 65.7771C53.1539 65.7771 61.4449 57.626 61.4449 47.6106H64.6601C64.6601 47.6598 64.6599 47.7088 64.6596 47.7579Z" fill="#7700FF"/>
<path fill-rule="evenodd" clip-rule="evenodd" d="M42.8863 20.6077C32.6186 20.6077 24.3277 28.7589 24.3277 38.7743H21.1125C21.1125 26.9627 30.8789 17.4197 42.8863 17.4197C54.8936 17.4197 64.6601 26.9627 64.6601 38.7743H61.4449C61.4449 28.7589 53.1539 20.6077 42.8863 20.6077Z" fill="#7700FF"/>
<path fill-rule="evenodd" clip-rule="evenodd" d="M24.4753 38.9215H20.9648V38.7743C20.9648 26.8789 30.7999 17.2724 42.8863 17.2724C54.9726 17.2724 64.8077 26.8789 64.8077 38.7743V38.9215H61.2973V38.7743C61.2973 28.8427 53.0748 20.755 42.8863 20.755C32.6977 20.755 24.4753 28.8427 24.4753 38.7743V38.9215ZM21.113 38.627C21.1937 26.8835 30.9289 17.4197 42.8863 17.4197C54.8437 17.4197 64.5788 26.8835 64.6596 38.627C64.6599 38.676 64.6601 38.7251 64.6601 38.7743H61.4449C61.4449 28.7589 53.1539 20.6077 42.8863 20.6077C32.6186 20.6077 24.3277 28.7589 24.3277 38.7743H21.1125C21.1125 38.7251 21.1126 38.676 21.113 38.627Z" fill="#7700FF"/>
<rect x="308.049" y="2.625" width="95.9524" height="81" rx="14.7841" fill="#FE842D"/>
<path d="M328.151 30.7567H336.928C341.477 30.7567 344.059 32.9186 344.059 36.2097C344.059 38.7588 342.349 40.4044 340.638 41.1465C343.058 42.0177 344.962 43.631 344.962 46.6963C344.962 50.8264 341.348 53.3432 337.057 53.3432H328.151V30.7567ZM331.636 39.8558H336.67C339.186 39.8558 340.671 38.9524 340.671 36.8228C340.671 34.7255 339.186 33.822 336.67 33.822H331.636V39.8558ZM331.636 50.2456H336.734C339.67 50.2456 341.477 49.0195 341.477 46.5672C341.477 44.0827 339.67 42.9211 336.734 42.9211H331.636V50.2456ZM348.142 53.3432V50.8587L356.79 42.3726C358.822 40.3721 359.694 38.9846 359.694 37.0809C359.694 34.8545 358.145 33.3703 355.66 33.3703C353.337 33.3703 351.659 34.79 351.659 37.1777C351.659 37.7908 351.724 38.2103 351.821 38.6942L348.4 38.9201C348.239 38.178 348.174 37.5649 348.174 36.9196C348.174 33.4994 351.014 30.305 355.692 30.305C360.468 30.305 363.081 33.0799 363.081 36.726C363.081 39.5654 362.114 41.5337 359.08 44.5022L353.402 50.0843H363.146V53.3432H348.142ZM387.081 48.4064C384.725 51.8912 382.079 53.7949 377.143 53.7949C370.657 53.7949 365.882 48.9227 365.882 42.05C365.882 35.1772 370.98 30.305 377.304 30.305C381.918 30.305 385.177 32.5959 386.855 35.6289L384.015 37.4681C382.402 34.79 380.337 33.4994 377.207 33.4994C372.948 33.4994 369.431 36.9519 369.431 42.05C369.431 47.0512 372.754 50.6005 377.207 50.6005C380.305 50.6005 382.467 49.2776 384.209 46.7286L387.081 48.4064Z" fill="white"/>
</svg>
